<svg xmlns="http://www.w3.org/2000/svg" width="20" height="20" viewBox="0 0 20 20"><rect width="100%" height="100%" fill="#DDDDDD"/><path fill="#999999" d="M4.425 10.985h.74q.08 0 .13.04.04.05.04.12v.3h-1.98v-.16q0-.05.02-.11.02-.05.07-.1l.88-.88q.11-.11.19-.21.09-.1.15-.2t.09-.21q.03-.1.03-.21t-.03-.19-.09-.13q-.05-.05-.13-.08t-.17-.03-.17.03q-.07.02-.13.07-.06.04-.1.1t-.06.13q-.03.1-.08.13-.06.03-.16.01l-.26-.05q.03-.2.12-.36.08-.16.21-.26.13-.11.3-.16.16-.05.36-.05t.36.05q.17.06.29.17.11.11.18.26t.07.34q0 .16-.05.3-.05.13-.13.26-.08.12-.18.24-.11.11-.22.23l-.66.67q.1-.03.19-.05.09-.01.18-.01m3.32-.99q0 .38-.08.66t-.23.46q-.14.18-.34.27-.19.09-.42.09-.22 0-.41-.09-.2-.09-.34-.27t-.22-.46-.08-.66.08-.65q.08-.28.22-.46.14-.19.34-.27.19-.09.41-.09.23 0 .42.09.2.08.34.27.15.18.23.46.08.27.08.65m-.51 0q0-.31-.05-.52-.04-.2-.12-.32-.08-.13-.18-.17-.1-.05-.21-.05-.1 0-.2.05-.1.04-.18.17-.07.12-.12.32-.04.21-.04.52 0 .32.04.52.05.21.12.33.08.12.18.17t.2.05q.11 0 .21-.05t.18-.17.12-.33q.05-.2.05-.52m3.68.79-.26.26-.68-.68-.68.68-.26-.26.68-.68-.65-.66.26-.26.65.66.65-.65.26.26-.65.65zm2.41.2h.74q.08 0 .13.04.05.05.05.12v.3h-1.99v-.16q0-.05.02-.11.03-.05.07-.1l.88-.88q.11-.11.2-.21.08-.1.14-.2t.09-.21q.03-.1.03-.21t-.03-.19-.08-.13q-.06-.05-.14-.08-.07-.03-.17-.03-.09 0-.16.03-.08.02-.13.07-.06.04-.1.1t-.06.13q-.04.1-.09.13t-.16.01l-.26-.05q.03-.2.12-.36t.21-.26q.13-.11.3-.16t.36-.05q.2 0 .37.05.16.06.28.17t.18.26q.07.15.07.34 0 .16-.05.3-.04.13-.12.26-.08.12-.19.24-.1.11-.22.23l-.65.67q.09-.03.18-.05.1-.01.18-.01m3.32-.99q0 .38-.08.66t-.22.46q-.15.18-.34.27-.2.09-.42.09-.23 0-.42-.09t-.34-.27q-.14-.18-.22-.46t-.08-.66.08-.65q.08-.28.22-.46.15-.19.34-.27.19-.09.42-.09.22 0 .42.09.19.08.34.27.14.18.22.46.08.27.08.65m-.51 0q0-.31-.04-.52-.05-.2-.13-.32-.07-.13-.17-.17-.1-.05-.21-.05t-.21.05q-.1.04-.17.17-.08.12-.12.32-.05.21-.05.52 0 .32.05.52.04.21.12.33.07.12.17.17t.21.05.21-.05.17-.17q.08-.12.13-.33.04-.2.04-.52"/></svg>